<mxfile host="app.diagrams.net" agent="Mozilla/5.0 (X11; Linux x86_64) AppleWebKit/537.36 (KHTML, like Gecko) Chrome/138.0.0.0 Safari/537.36" version="27.1.6">
  <diagram name="FSM-Blocks" id="WSg6jyPGgswBtNOeUvHt">
    <mxGraphModel dx="1585" dy="619" grid="0" gridSize="10" guides="1" tooltips="1" connect="1" arrows="1" fold="1" page="0" pageScale="1" pageWidth="850" pageHeight="1100" math="0" shadow="0">
      <root>
        <mxCell id="0" />
        <mxCell id="1" parent="0" />
        <mxCell id="t9AGj62sdypq4BqIeRWC-1" value="changeState" style="rounded=0;whiteSpace=wrap;html=1;" vertex="1" parent="1">
          <mxGeometry x="381" y="182" width="136" height="73" as="geometry" />
        </mxCell>
        <mxCell id="t9AGj62sdypq4BqIeRWC-2" value="" style="rounded=0;whiteSpace=wrap;html=1;" vertex="1" parent="1">
          <mxGeometry x="-64" y="348" width="72" height="32" as="geometry" />
        </mxCell>
        <mxCell id="t9AGj62sdypq4BqIeRWC-3" value="" style="rounded=1;whiteSpace=wrap;html=1;" vertex="1" parent="1">
          <mxGeometry x="-67" y="391" width="78" height="29" as="geometry" />
        </mxCell>
        <mxCell id="t9AGj62sdypq4BqIeRWC-10" value="Process" style="swimlane;whiteSpace=wrap;html=1;" vertex="1" parent="1">
          <mxGeometry x="-85" y="511" width="122" height="72" as="geometry">
            <mxRectangle x="-85" y="511" width="130" height="26" as="alternateBounds" />
          </mxGeometry>
        </mxCell>
        <mxCell id="t9AGj62sdypq4BqIeRWC-11" value="" style="ellipse;whiteSpace=wrap;html=1;aspect=fixed;" vertex="1" parent="1">
          <mxGeometry x="-58" y="432" width="60" height="60" as="geometry" />
        </mxCell>
        <mxCell id="t9AGj62sdypq4BqIeRWC-12" value="Input" style="text;html=1;align=center;verticalAlign=middle;resizable=0;points=[];autosize=1;strokeColor=none;fillColor=none;" vertex="1" parent="1">
          <mxGeometry x="81" y="351" width="45" height="26" as="geometry" />
        </mxCell>
        <mxCell id="t9AGj62sdypq4BqIeRWC-13" value="Output" style="text;html=1;align=center;verticalAlign=middle;resizable=0;points=[];autosize=1;strokeColor=none;fillColor=none;" vertex="1" parent="1">
          <mxGeometry x="77" y="392.5" width="54" height="26" as="geometry" />
        </mxCell>
        <mxCell id="t9AGj62sdypq4BqIeRWC-14" value="Procedure" style="text;html=1;align=center;verticalAlign=middle;resizable=0;points=[];autosize=1;strokeColor=none;fillColor=none;" vertex="1" parent="1">
          <mxGeometry x="67" y="449" width="73" height="26" as="geometry" />
        </mxCell>
        <mxCell id="t9AGj62sdypq4BqIeRWC-15" value="Process" style="text;html=1;align=center;verticalAlign=middle;resizable=0;points=[];autosize=1;strokeColor=none;fillColor=none;" vertex="1" parent="1">
          <mxGeometry x="73" y="534" width="61" height="26" as="geometry" />
        </mxCell>
        <mxCell id="t9AGj62sdypq4BqIeRWC-17" value="changeState" style="ellipse;whiteSpace=wrap;html=1;aspect=fixed;" vertex="1" parent="1">
          <mxGeometry x="392.5" y="301" width="113" height="113" as="geometry" />
        </mxCell>
      </root>
    </mxGraphModel>
  </diagram>
</mxfile>
